<?xml version="1.0" encoding="utf-8" ?><!-- created by svgstack.com | Attribution is required. --><svg xmlns="http://www.w3.org/2000/svg" xmlns:xlink="http://www.w3.org/1999/xlink" width="1024" height="1024"><path fill="#24588B" transform="scale(2 2)" d="M66.9739 146.64L67.1835 146.649C76.9843 146.99 77.635 149.478 86.4732 154.235L140.81 183.621C143.509 185.047 149.669 187.796 151.772 189.618C162.28 195.152 172.872 200.599 183.319 206.238C189.648 209.654 196.152 213.864 202.835 216.493C197.743 222.472 206.151 229.327 209.73 233.912C213.201 238.358 216.492 243.192 220.35 247.301C215.691 255.9 211.377 265.319 209.335 274.908C205.859 274.948 186.597 279.303 182.094 280.969C178.061 282.46 177.455 283.858 177.15 288.074C176.829 292.51 176.687 321.114 177.409 323.612C178.893 328.744 203.73 333.874 209.335 335.258C210.9 343.642 214.675 352.499 218.405 360.147C215.116 363.78 211.439 370.862 208.738 375.205C205.96 379.671 198.795 387.266 202.662 392.67C205.326 396.392 227.294 417.456 231.124 417.242C234.665 417.045 252.305 403.305 255.757 400.397C261.169 404.664 267.391 408.453 273.771 411.092C271.341 413.029 267.16 414.714 264.351 416.185C253.241 422 241.813 428.155 230.185 432.896C218.061 437.839 209.727 429.072 198.948 423.617L159.994 403.73C157.241 402.312 154.377 401.019 151.772 399.339C147.175 396.227 140.731 393.417 135.707 390.753L86.6863 365.296C72.3036 357.676 64.2622 358.766 64.242 340.361L64.2394 166.968C64.2356 159.935 62.6991 152.656 66.9739 146.64Z"/><path fill="#438CC9" transform="scale(2 2)" d="M151.772 329.709C110.789 322.464 85.1909 271.334 102.246 232.839C111.079 212.901 129.937 197.51 151.772 194.634L151.772 216.493L151.795 298.971C151.801 302.051 152.062 305.361 151.772 308.415L151.772 329.709Z"/><path fill="#24588B" transform="scale(2 2)" d="M151.772 308.415C146.845 307.306 138.577 301.785 134.643 298.583C113.949 281.739 110.617 251.583 127.704 230.933C133.466 223.97 142.558 217.379 151.772 216.493L151.795 298.971C151.801 302.051 152.062 305.361 151.772 308.415Z"/><path fill="#2F3E4A" transform="scale(2 2)" d="M151.772 189.618C162.28 195.152 172.872 200.599 183.319 206.238C189.648 209.654 196.152 213.864 202.835 216.493C197.743 222.472 206.151 229.327 209.73 233.912C213.201 238.358 216.492 243.192 220.35 247.301C215.691 255.9 211.377 265.319 209.335 274.908C205.859 274.948 186.597 279.303 182.094 280.969C178.061 282.46 177.455 283.858 177.15 288.074C176.829 292.51 176.687 321.114 177.409 323.612C178.893 328.744 203.73 333.874 209.335 335.258C210.9 343.642 214.675 352.499 218.405 360.147C215.116 363.78 211.439 370.862 208.738 375.205C205.96 379.671 198.795 387.266 202.662 392.67C205.326 396.392 227.294 417.456 231.124 417.242C234.665 417.045 252.305 403.305 255.757 400.397C261.169 404.664 267.391 408.453 273.771 411.092C271.341 413.029 267.16 414.714 264.351 416.185C253.241 422 241.813 428.155 230.185 432.896C218.061 437.839 209.727 429.072 198.948 423.617L159.994 403.73C157.241 402.312 154.377 401.019 151.772 399.339C152.009 391.562 151.766 383.714 151.763 375.93L151.772 329.709L151.772 308.415C152.062 305.361 151.801 302.051 151.795 298.971L151.772 216.493L151.772 194.634L151.772 189.618Z"/><path fill="#438CC9" transform="scale(2 2)" d="M66.9739 146.64C69.9195 142.282 86.9241 134.666 92.112 131.858L203.147 72.5812C227.257 60.0162 220.125 59.9205 244.815 72.5054L353.604 128.889C364.369 134.489 375.531 139.697 385.993 145.842C389.25 147.308 390.718 150.336 390.873 153.725C391.42 165.711 391.382 181.624 390.892 193.64C393.051 194.104 395.189 194.497 397.119 195.623C396.277 201.825 385.311 227.296 381.883 232.275C377.69 230.081 374.012 227.052 370.172 224.311C320.943 189.179 251.823 208.737 223.758 260.883C218.962 269.794 219.111 271.316 209.335 274.908C211.377 265.319 215.691 255.9 220.35 247.301C216.492 243.192 213.201 238.358 209.73 233.912C206.151 229.327 197.743 222.472 202.835 216.493C196.152 213.864 189.648 209.654 183.319 206.238C172.872 200.599 162.28 195.152 151.772 189.618C149.669 187.796 143.509 185.047 140.81 183.621L86.4732 154.235C77.635 149.478 76.9843 146.99 67.1835 146.649L66.9739 146.64Z"/><path fill="#FBD054" transform="scale(2 2)" d="M385.993 145.842C389.25 147.308 390.718 150.336 390.873 153.725C391.42 165.711 391.382 181.624 390.892 193.64C393.051 194.104 395.189 194.497 397.119 195.623C396.277 201.825 385.311 227.296 381.883 232.275C377.69 230.081 374.012 227.052 370.172 224.311C320.943 189.179 251.823 208.737 223.758 260.883C218.962 269.794 219.111 271.316 209.335 274.908C211.377 265.319 215.691 255.9 220.35 247.301C216.492 243.192 213.201 238.358 209.73 233.912C206.151 229.327 197.743 222.472 202.835 216.493C210.561 209.27 218.042 199.969 225.64 193.327C230.874 188.752 238.748 195.996 243.232 198.727C248.258 201.788 253.488 204.589 258.299 207.985C266.206 202.346 275.764 199.276 284.97 196.511C285.543 193.987 285.789 191.356 286.191 188.798L288.661 172.509C289.259 168.369 288.654 161.755 293.441 160.088C295.745 159.286 330.3 158.7 333.049 160.533C335.902 162.437 335.939 167.938 336.365 170.989C346.906 165.876 357.312 160.486 367.797 155.259L379.527 149.304C381.677 148.211 384.014 147.224 385.993 145.842Z"/><path fill="#24588B" transform="scale(2 2)" d="M385.993 145.842C389.25 147.308 390.718 150.336 390.873 153.725C391.42 165.711 391.382 181.624 390.892 193.64C387.08 194.888 369.265 205.304 366.158 207.985C360.143 202.967 348.057 198.127 340.333 196.511C339.529 188.023 337.653 179.432 336.365 170.989C346.906 165.876 357.312 160.486 367.797 155.259L379.527 149.304C381.677 148.211 384.014 147.224 385.993 145.842Z"/><path fill="#ED8F2A" transform="scale(2 2)" d="M397.119 195.623C402.886 199.853 407.939 205.295 413.07 210.258C422.81 219.68 423.567 219.802 415.096 231.616L406.848 243.117C405.601 244.862 404.177 246.583 403.056 248.405C408.536 256.456 412.888 265.618 415.764 274.908C421.702 276.143 427.788 276.905 433.776 277.89C440.224 278.952 446.143 278.908 447.049 286.901C447.414 290.118 447.619 322.117 447.107 324.078C444.992 332.188 425.004 332.651 416.61 335.258C413.904 345.667 410.197 355.044 404.394 364.127C408.265 368.643 411.195 373.644 414.518 378.545C421.899 389.433 423.73 389.566 413.878 399.453L404.57 408.822C400.991 412.422 394.644 421.642 388.873 420.735C386.145 420.307 369.416 405.802 366.158 403.161C357.531 407.699 350.633 411.69 341.336 415.019C340.39 421.308 338.859 446.245 332.034 446.747C327.081 447.111 297.527 447.318 294.068 446.554C289.133 445.464 285.052 420.278 283.298 415.019C280.555 413.228 277 411.741 273.771 411.092C267.391 408.453 261.169 404.664 255.757 400.397C252.305 403.305 234.665 417.045 231.124 417.242C227.294 417.456 205.326 396.392 202.662 392.67C198.795 387.266 205.96 379.671 208.738 375.205C211.439 370.862 215.116 363.78 218.405 360.147C214.675 352.499 210.9 343.642 209.335 335.258C203.73 333.874 178.893 328.744 177.409 323.612C176.687 321.114 176.829 292.51 177.15 288.074C177.455 283.858 178.061 282.46 182.094 280.969C186.597 279.303 205.859 274.948 209.335 274.908C219.111 271.316 218.962 269.794 223.758 260.883C251.823 208.737 320.943 189.179 370.172 224.311C374.012 227.052 377.69 230.081 381.883 232.275C385.311 227.296 396.277 201.825 397.119 195.623Z"/><path fill="#2F3E4A" transform="scale(2 2)" d="M369.133 257.163C413.549 311.737 372.952 391.271 303.687 383.857C289.747 382.365 271.434 374.901 262.016 364.127C263.919 363.968 265.878 364.278 267.793 364.234C281.168 363.928 292.779 359.409 304.505 353.601C306.232 352.745 308.976 351.961 310.274 350.576L312.528 351.522L312.528 305.153C320.505 300.651 342.569 288.848 351.12 285.956L347.399 283.909C348.416 282.655 349.77 281.541 350.912 280.391C358.007 273.243 363.257 265.188 369.133 257.163Z"/><path fill="#438CC9" transform="scale(2 2)" d="M351.12 285.956C351.717 287.044 351.127 293.475 351.122 295.364L351.128 320.708C351.131 324.76 351.296 328.879 351.12 332.923C347.769 335.843 314.435 351.596 312.528 351.522L312.528 305.153C320.505 300.651 342.569 288.848 351.12 285.956Z"/><path fill="#616161" transform="scale(2 2)" d="M209.335 274.908C219.111 271.316 218.962 269.794 223.758 260.883C251.823 208.737 320.943 189.179 370.172 224.311C374.012 227.052 377.69 230.081 381.883 232.275C379.977 237.749 372.727 251.713 369.133 257.163L369.133 257.163C363.257 265.188 358.007 273.243 350.912 280.391C349.77 281.541 348.416 282.655 347.399 283.909L351.12 285.956C342.569 288.848 320.505 300.651 312.528 305.153L312.528 351.522L310.274 350.576C308.976 351.961 306.232 352.745 304.505 353.601C292.779 359.409 281.168 363.928 267.793 364.234C265.878 364.278 263.919 363.968 262.016 364.127L262.016 364.127C257.305 365.441 224.207 361.615 218.405 360.147C214.675 352.499 210.9 343.642 209.335 335.258C203.73 333.874 178.893 328.744 177.409 323.612C176.687 321.114 176.829 292.51 177.15 288.074C177.455 283.858 178.061 282.46 182.094 280.969C186.597 279.303 205.859 274.948 209.335 274.908Z"/><path fill="#90D2F8" transform="scale(2 2)" d="M312.528 266.487C324.615 271.088 335.744 278.341 347.399 283.909L351.12 285.956C342.569 288.848 320.505 300.651 312.528 305.153C310.782 304 308.67 303.134 306.795 302.194L293.67 295.752C287.02 292.533 280.537 288.919 273.771 285.956C286.236 278.881 299.539 272.518 312.528 266.487Z"/><path fill="#03CEDD" transform="scale(2 2)" d="M273.771 285.956C280.537 288.919 287.02 292.533 293.67 295.752L306.795 302.194C308.67 303.134 310.782 304 312.528 305.153L312.528 351.522L310.274 350.576C300.122 346.074 283.17 338.609 273.771 332.923L273.767 302.033C273.766 296.706 273.512 291.273 273.771 285.956Z"/><path fill="#FCB93B" transform="scale(2 2)" d="M209.335 274.908C219.111 271.316 218.962 269.794 223.758 260.883C251.823 208.737 320.943 189.179 370.172 224.311C374.012 227.052 377.69 230.081 381.883 232.275C379.977 237.749 372.727 251.713 369.133 257.163C323.639 206.807 241.554 237.76 238.877 306.105C238.029 327.764 246.629 348.983 262.016 364.127C257.305 365.441 224.207 361.615 218.405 360.147C214.675 352.499 210.9 343.642 209.335 335.258C203.73 333.874 178.893 328.744 177.409 323.612C176.687 321.114 176.829 292.51 177.15 288.074C177.455 283.858 178.061 282.46 182.094 280.969C186.597 279.303 205.859 274.948 209.335 274.908Z"/></svg> 