<svg version="1.1" id="Layer_1" xmlns="http://www.w3.org/2000/svg" xmlns:xlink="http://www.w3.org/1999/xlink" x="0px" y="0px"
	 width="100%" viewBox="0 0 1024 1024" enable-background="new 0 0 1024 1024" xml:space="preserve">
<path fill="#000000" opacity="1.000000" stroke="none" 
	d="
M241.106415,614.769958 
	C177.991623,481.747467 241.527252,322.439667 378.566925,270.968262 
	C512.022888,220.842896 640.510071,291.278046 687.724304,384.583435 
	C684.546936,386.116730 683.679077,383.461609 682.487061,381.696289 
	C670.382324,363.769836 656.163574,347.766144 639.515381,333.914154 
	C605.080078,305.262360 565.779358,287.779877 521.270691,282.196991 
	C469.182129,275.663300 420.508636,285.934265 375.416595,312.600952 
	C341.308655,332.771790 314.437073,360.308960 294.533905,394.599304 
	C293.639038,396.141052 292.387268,397.602509 292.744965,400.679657 
	C340.924225,400.679657 389.203217,400.679657 437.482239,400.679657 
	C437.785553,401.210358 438.088898,401.741058 438.392212,402.271790 
	C427.438721,415.711243 419.352295,430.755829 413.400696,446.995667 
	C412.909576,446.921783 412.418427,446.847931 411.927277,446.774048 
	C410.107758,443.648041 408.198486,440.570404 406.484070,437.387756 
	C398.522034,422.607086 385.857391,415.741119 369.394440,415.333832 
	C356.902527,415.024811 344.406158,414.895111 331.914154,414.589752 
	C328.477203,414.505707 327.204071,415.936890 327.219635,419.353363 
	C327.313843,440.017792 327.319122,460.682922 327.243591,481.347412 
	C327.232269,484.441711 328.147186,485.893890 331.464020,485.990143 
	C335.289062,486.101135 335.801666,484.046234 335.792267,480.963623 
	C335.738953,463.465454 335.942474,445.964539 335.681000,428.470215 
	C335.606567,423.491455 337.087952,421.534363 342.152161,421.717468 
	C355.760773,422.209473 369.511475,420.148651 382.932678,423.819244 
	C389.834106,425.706757 396.493713,428.194000 400.639832,434.805573 
	C400.008667,435.222778 399.613678,435.587860 399.527985,435.525818 
	C386.846954,426.344116 372.216766,425.994781 357.464233,426.216644 
	C353.632843,426.274231 349.798584,426.324158 345.972870,426.518829 
	C342.703735,426.685181 340.905365,428.090302 340.933136,431.827087 
	C341.058258,448.647736 341.000031,465.470093 340.925903,482.291534 
	C340.913757,485.039307 341.873993,486.179993 344.727417,486.093292 
	C350.221588,485.926392 355.724976,485.952515 361.222198,486.041656 
	C363.823883,486.083862 365.565033,484.826294 367.244720,483.064148 
	C373.107361,476.913605 379.030029,470.820038 384.960632,464.734741 
	C386.201019,463.461914 387.166412,461.766937 389.793579,461.463470 
	C389.793579,482.362549 389.793579,503.162628 389.793579,523.956970 
	C388.067566,524.716553 387.333862,523.303528 386.429871,522.451233 
	C379.884460,516.280273 373.302063,510.145538 366.882477,503.845398 
	C364.342133,501.352356 361.645599,500.130310 358.012268,500.214874 
	C349.350983,500.416382 340.681122,500.360931 332.016602,500.254913 
	C328.670746,500.214020 327.221649,501.399200 327.235443,504.912720 
	C327.326416,528.076660 327.306763,551.241272 327.251251,574.405457 
	C327.245544,576.788513 328.152466,578.497864 329.800476,580.091248 
	C334.352844,584.492615 338.838104,588.963928 343.314056,593.443420 
	C344.433899,594.564148 345.962280,595.451660 346.267792,598.056030 
	C325.130432,598.056030 304.265839,598.056030 283.387268,598.056030 
	C283.639557,605.602051 285.624359,607.666748 292.068604,607.674805 
	C312.066833,607.699768 332.065125,607.721924 352.063293,607.691956 
	C353.647369,607.689575 355.377228,608.226257 357.362915,606.627747 
	C352.093689,600.209534 347.155609,593.566589 341.542175,587.554077 
	C336.987335,582.675537 335.495239,577.437683 335.624969,570.858948 
	C335.999481,551.868591 335.901367,532.864990 335.691406,513.869812 
	C335.638184,509.051300 337.231934,507.415497 342.014130,507.615784 
	C349.666779,507.936310 357.342682,507.738770 365.008362,507.694733 
	C368.208557,507.676331 370.780365,508.563721 372.269684,511.638885 
	C370.603790,513.450684 368.659912,512.910706 366.917267,512.932800 
	C359.752625,513.023621 352.586426,513.047668 345.421204,513.013000 
	C342.610168,512.999451 341.048309,513.974609 341.053925,517.051941 
	C341.089813,536.713562 341.071594,556.375305 341.047150,576.037048 
	C341.044006,578.574646 342.387085,580.401550 343.910187,582.223511 
	C350.856537,590.533142 357.776337,598.864990 364.678711,607.211243 
	C365.819183,608.590271 367.262238,609.802551 367.993591,612.791870 
	C341.787384,612.791870 315.976288,612.791870 289.760956,612.791870 
	C290.533569,618.561401 294.844208,621.721130 295.327545,626.347290 
	C293.503174,627.757019 291.607208,627.218689 289.842987,627.225769 
	C277.844238,627.273621 265.838013,627.008179 253.849762,627.365479 
	C248.925308,627.512207 245.992447,625.924500 244.335724,621.381104 
	C243.542404,619.205505 242.314972,617.188293 241.106415,614.769958 
M294.041992,521.567383 
	C294.044403,520.402527 294.067017,519.237366 294.045807,518.072937 
	C293.940430,512.284668 292.681305,511.262329 287.138550,512.613281 
	C282.860504,513.655945 279.154968,515.881287 275.656372,518.471863 
	C274.245209,519.516724 272.915985,520.468933 271.348969,518.687927 
	C269.557343,516.651672 270.962433,515.367432 272.374573,514.112061 
	C277.281128,509.750275 283.229706,507.741730 289.567749,506.786499 
	C291.887451,506.436859 294.002747,506.216248 293.714600,503.131866 
	C293.421936,499.999268 290.976379,500.251434 288.843048,500.207245 
	C280.572784,500.035950 273.754700,503.406921 267.595581,508.688629 
	C265.108093,510.821686 264.046173,513.011536 264.119293,516.374329 
	C264.622314,539.506958 268.986267,561.910706 276.382965,583.769348 
	C276.937042,585.406738 277.126984,587.420166 279.681702,588.372437 
	C282.789032,586.014954 285.939972,583.300232 289.407562,581.080139 
	C293.254883,578.616943 294.223816,575.355774 294.161835,570.966919 
	C293.933929,554.829468 294.055115,538.687073 294.041992,521.567383 
M280.257111,489.550049 
	C282.953308,488.707458 285.628540,487.247894 288.350189,487.155518 
	C293.422455,486.983459 294.182587,484.400238 294.139404,480.058716 
	C293.968719,462.902740 293.724609,445.732086 294.275269,428.591522 
	C294.513855,421.166077 290.695343,417.411591 284.755615,413.443695 
	C271.813812,441.711945 264.996735,470.861725 264.762817,501.680054 
	C269.241486,496.900055 273.438690,492.186371 280.257111,489.550049 
z"/>
<path fill="#000000" opacity="1.000000" stroke="none" 
	d="
M488.790527,193.950195 
	C491.404633,184.931061 494.046967,176.339539 496.384399,167.665833 
	C497.178497,164.719269 498.575226,163.572357 501.601746,163.640289 
	C508.764221,163.801041 515.935913,163.861786 523.096252,163.673050 
	C526.627930,163.579941 528.082825,165.114655 528.904724,168.358047 
	C531.559265,178.833725 534.625366,189.207291 537.159424,199.710297 
	C538.250671,204.233536 539.714722,206.496094 545.128723,207.050262 
	C577.135742,210.326492 607.974182,218.370209 637.349792,231.632080 
	C640.728638,233.157471 642.904907,232.918716 645.577698,230.216370 
	C653.425903,222.281433 661.689453,214.757996 669.563965,206.848068 
	C672.352966,204.046448 674.577515,203.282425 678.134277,205.642380 
	C683.957397,209.506165 690.082581,212.925446 696.166870,216.379776 
	C698.563538,217.740494 699.336548,219.191162 698.538391,222.028412 
	C695.385803,233.235153 692.556763,244.532486 689.477234,255.760422 
	C688.619080,258.889404 689.206665,260.870087 692.036499,262.881470 
	C718.878418,281.960327 741.954590,304.909454 761.394226,331.471100 
	C763.707336,334.631683 765.785767,335.583618 769.639526,334.525024 
	C780.228577,331.616241 790.980591,329.303070 801.582336,326.437042 
	C805.178772,325.464813 807.154663,326.367462 808.843323,329.540253 
	C812.051392,335.567841 815.398865,341.532074 818.959656,347.356812 
	C820.898987,350.529083 820.337646,352.650391 817.746460,355.153442 
	C809.957214,362.677582 802.415833,370.457733 794.723938,378.083771 
	C792.905823,379.886292 791.132263,381.600098 791.908142,384.268799 
	C790.424988,385.704956 788.852417,385.323456 787.411255,385.325287 
	C771.413452,385.345367 755.413208,385.168365 739.419617,385.422699 
	C735.218506,385.489471 733.189758,383.811737 731.368713,380.344757 
	C705.822388,331.707397 669.087585,293.779694 621.417297,266.565521 
	C588.473389,247.758453 553.107666,236.160416 515.300598,232.162079 
	C437.784485,223.964294 368.536774,244.338013 307.553711,292.637695 
	C286.141663,309.596436 267.887878,329.660980 252.638962,352.391754 
	C251.574371,353.978638 250.864639,355.939453 248.532089,356.994232 
	C248.478729,354.768372 249.660309,353.332489 250.592087,351.879822 
	C299.297119,275.947968 367.379669,228.177963 456.179657,210.623077 
	C464.161896,209.045059 472.231171,207.735107 480.323212,206.959732 
	C484.206329,206.587646 485.996094,205.185318 486.684357,201.553329 
	C487.147156,199.111160 488.013580,196.745499 488.790527,193.950195 
z"/>
<path fill="#000000" opacity="1.000000" stroke="none" 
	d="
M416.562408,781.404968 
	C439.379364,787.008362 462.211609,789.660156 485.210815,789.456116 
	C517.546753,789.169312 549.095032,783.641663 579.534180,772.389587 
	C628.702026,754.214417 669.563477,724.527039 702.370972,683.717224 
	C704.525330,681.037292 706.692749,679.643127 710.291748,679.656006 
	C743.782043,679.775452 777.273010,679.713318 810.763733,679.732361 
	C812.377991,679.733276 814.097107,679.379395 816.229004,680.999634 
	C813.371033,686.959229 809.883179,692.711304 806.047485,698.240906 
	C804.872009,699.935486 802.960083,698.837463 801.401733,698.425720 
	C790.945374,695.662537 780.463684,692.985107 770.068359,690.007202 
	C767.041931,689.140137 765.198547,689.539795 763.311401,692.185730 
	C743.503784,719.957092 719.740417,743.811646 691.921509,763.570618 
	C689.214722,765.493103 689.026611,767.574097 689.767212,770.449524 
	C692.420410,780.750671 694.740051,791.141113 697.569031,801.392029 
	C698.595886,805.112671 698.021545,807.242981 694.505493,809.049927 
	C688.287720,812.245117 682.193481,815.703064 676.205444,819.313049 
	C673.382568,821.014954 671.522766,820.622986 669.283630,818.309814 
	C661.983826,810.768860 654.360779,803.538208 647.143311,795.921570 
	C644.461060,793.091003 642.391541,792.428528 638.613098,794.153625 
	C609.773560,807.320190 579.465698,815.510803 548.007812,818.979065 
	C536.460327,820.252258 538.406189,819.677612 535.364929,829.803772 
	C532.733521,838.565491 530.120667,847.336426 527.741821,856.168518 
	C526.897034,859.305054 525.368591,860.483154 522.130798,860.385803 
	C515.138489,860.175476 508.129608,860.093140 501.141266,860.342957 
	C497.363464,860.477966 495.868744,858.892029 495.001343,855.443787 
	C492.364288,844.960144 489.441772,834.548584 486.667786,824.098999 
	C485.998566,821.578125 485.293060,819.608398 481.975830,819.282715 
	C438.095245,814.975098 397.063782,801.737671 358.927917,779.595032 
	C317.738861,755.679626 283.991394,723.813538 257.387115,684.345764 
	C256.479462,682.999329 255.261566,681.754456 255.289856,679.648804 
	C258.948517,677.546448 261.225494,679.422058 263.444275,682.280029 
	C277.825653,700.804688 294.441101,717.085815 313.006805,731.397400 
	C343.915009,755.223389 378.373688,771.699951 416.562408,781.404968 
z"/>
<path fill="#000000" opacity="1.000000" stroke="none" 
	d="
M716.077759,509.205750 
	C724.754761,531.960754 733.440308,554.314148 741.751160,576.806030 
	C743.678772,582.022644 747.840637,584.513794 751.744995,587.505005 
	C756.671509,591.279236 762.106934,594.429749 767.280762,599.867798 
	C739.993164,599.867798 713.974182,599.867798 687.872253,599.867798 
	C687.466675,597.134583 689.852478,596.518188 691.213196,595.351685 
	C695.765442,591.448914 700.463318,587.715088 705.131409,583.948853 
	C706.799072,582.603394 707.903076,581.278259 706.941528,578.864319 
	C701.764893,565.868713 696.702698,552.827515 691.572083,539.813538 
	C691.406555,539.393494 690.926941,539.097290 690.027771,538.142334 
	C684.782349,542.763306 680.370972,548.098206 675.986755,553.398193 
	C672.489990,557.625244 669.399231,562.190857 666.182068,566.645020 
	C664.824829,568.524109 663.435120,570.004150 660.908813,568.576050 
	C660.288147,565.902100 662.248108,564.453796 663.410828,562.773376 
	C670.069458,553.149719 677.876404,544.483154 686.157776,536.255981 
	C689.189514,533.244141 689.116150,530.671143 685.955872,527.541260 
	C673.503052,536.644653 664.309387,548.573242 655.212097,561.917297 
	C646.950500,549.862793 639.234131,538.338135 629.663696,527.097961 
	C624.116028,538.572937 620.353027,549.584961 618.234741,561.268066 
	C615.706726,575.210999 620.286804,586.727051 628.986755,597.254822 
	C632.771851,601.835144 636.955933,606.155945 639.947937,611.328979 
	C638.552734,613.446960 636.559937,612.937439 634.849548,612.940674 
	C609.685059,612.988220 584.520447,612.973450 559.355896,612.988464 
	C556.245300,612.990295 553.325623,612.737122 551.873413,608.144775 
	C578.065430,608.144775 603.851929,608.144775 630.307190,608.144775 
	C628.757263,603.214966 625.678894,600.552856 623.195984,597.689148 
	C612.391602,585.227966 610.480652,571.050659 614.215637,555.553101 
	C616.445862,546.299194 619.496765,537.332947 623.131531,528.545105 
	C625.722351,522.281189 625.284363,521.154358 618.817139,517.016724 
	C614.061768,529.880371 609.508362,542.677185 606.100464,555.849609 
	C604.939026,560.338745 604.301514,564.900269 604.609070,569.662292 
	C605.235779,579.365967 610.620422,586.364990 616.868469,593.007385 
	C618.671082,594.923828 620.963074,596.428955 622.294983,599.663818 
	C596.244690,599.663818 570.534729,599.663818 544.862854,599.663818 
	C544.501099,598.393372 545.242615,597.942871 545.977112,597.566101 
	C568.174988,586.178345 581.962646,567.472961 591.686523,545.186768 
	C596.487793,534.182739 600.421753,522.859375 604.513550,511.587097 
	C605.820068,507.988007 604.851685,506.095703 601.629089,504.434174 
	C595.643677,501.348206 589.150269,500.040771 581.897339,498.704254 
	C586.664062,489.799286 591.752014,481.686523 594.948853,472.238068 
	C602.019653,476.552460 606.452515,482.944397 613.111694,486.528656 
	C616.637573,483.666229 616.149536,481.138550 613.091980,478.645630 
	C609.476013,475.697479 605.863647,472.744904 602.249146,469.794922 
	C600.835327,468.640991 599.842529,467.377136 601.285278,465.586334 
	C602.582214,463.976562 603.967163,464.663055 605.231995,465.587402 
	C609.512390,468.715698 613.755737,471.894684 618.011597,475.053101 
	C620.308899,473.729492 620.623352,471.428650 621.352661,469.504852 
	C626.961121,454.711212 632.319275,439.820923 638.087280,425.090698 
	C639.765076,420.805908 639.627136,417.767487 636.008545,414.553833 
	C631.841736,410.853271 628.220337,406.538544 623.310730,401.387573 
	C648.629578,401.387573 672.367798,401.387573 696.597961,401.387573 
	C694.825317,406.007599 691.408386,408.819000 688.319641,411.564758 
	C682.302979,416.913269 681.474060,422.070648 684.828796,429.714966 
	C692.116150,446.319946 698.162292,463.469147 704.748352,480.383209 
	C705.401917,482.061646 705.789124,483.918701 707.494507,485.333435 
	C712.307617,484.837219 712.164429,482.008148 710.746826,478.368042 
	C704.158386,461.450195 697.738831,444.465210 690.978088,427.616913 
	C689.423889,423.743622 690.031616,421.178497 692.892029,418.333221 
	C696.901611,414.344971 700.556091,409.993286 704.268494,405.715454 
	C706.220459,403.466248 708.056152,403.289185 710.390930,405.783356 
	C706.990479,411.502350 701.681396,415.689240 697.629822,420.893127 
	C696.223328,422.699646 695.226440,424.190002 696.209595,426.684570 
	C702.864990,443.571655 709.378418,460.514648 715.962219,477.430084 
	C716.190735,478.017090 716.677124,478.503815 717.174927,479.228882 
	C722.606323,477.893738 725.306152,472.515076 730.745117,470.191833 
	C733.757568,481.011658 737.652344,491.161224 743.679138,501.738434 
	C737.169556,501.297974 731.783813,501.300903 726.456360,502.241913 
	C723.489685,502.765900 720.589783,503.414429 717.798645,504.543091 
	C715.749634,505.371643 714.908569,506.706573 716.077759,509.205750 
M659.962524,457.638916 
	C659.345276,456.374725 659.447754,454.641937 657.133789,453.884064 
	C651.974548,467.204712 646.818176,480.498505 641.681152,493.799774 
	C640.781128,496.130280 642.405762,497.534546 643.739075,499.005920 
	C648.203430,503.932800 652.712891,508.811188 656.701660,514.156006 
	C658.922546,517.132019 660.621033,520.579102 662.960083,522.446228 
	C667.553589,518.242188 671.756470,514.231628 676.148804,510.440613 
	C678.557129,508.361969 678.802795,506.288177 677.671936,503.410706 
	C671.776062,488.408936 666.034668,473.346436 659.962524,457.638916 
M640.874695,459.268524 
	C636.411011,470.752716 632.032715,482.271362 627.426697,493.698181 
	C626.194397,496.755066 626.529480,498.889191 628.937866,501.210175 
	C637.364014,509.330719 644.444641,518.607788 651.400940,527.980530 
	C652.552856,529.532471 653.389038,531.488953 655.532104,532.018738 
	C660.462280,527.931641 660.536438,527.502136 657.126953,522.762817 
	C651.271484,514.623657 644.734558,507.067078 637.404419,500.232605 
	C635.151733,498.132324 634.566284,496.213013 635.770325,493.233765 
	C641.448669,479.182953 646.598877,464.909698 652.612732,451.007935 
	C655.091248,445.278656 653.572693,440.938629 650.450745,434.989563 
	C647.089355,443.531952 644.132996,451.045074 640.874695,459.268524 
z"/>
<path fill="#000000" opacity="1.000000" stroke="none" 
	d="
M554.893494,743.031494 
	C523.622925,754.242981 491.736847,759.677063 458.957214,758.147156 
	C392.552795,755.047974 335.676056,729.970337 288.702820,682.761475 
	C288.119171,682.174927 287.595184,681.521057 287.105804,680.852905 
	C286.926971,680.608765 286.930023,680.231323 286.838379,679.868164 
	C287.748596,678.119934 289.436188,678.733765 290.809845,678.729675 
	C305.470367,678.685852 320.131439,678.762573 334.791443,678.664551 
	C337.831116,678.644165 340.146240,679.622925 342.431274,681.592407 
	C370.017731,705.369263 401.348907,722.054810 436.753265,730.838379 
	C463.981720,737.593567 491.510468,739.419922 519.438049,736.022400 
	C565.752136,730.388000 606.450012,712.259766 641.854370,682.002869 
	C644.159119,680.033203 646.407898,677.471619 650.853027,679.801147 
	C623.533081,708.323486 591.821228,729.234497 554.893494,743.031494 
z"/>
<path fill="#000000" opacity="1.000000" stroke="none" 
	d="
M522.987366,597.966675 
	C522.716492,599.910583 521.330688,600.230225 519.711121,600.227234 
	C497.223724,600.185547 474.736359,600.149292 452.249023,600.081055 
	C451.819885,600.079773 451.391846,599.705627 450.302582,599.196655 
	C453.380798,595.385681 457.070312,592.416016 460.848724,590.247620 
	C470.195984,584.883423 471.937622,577.225342 471.808319,566.997803 
	C471.478088,540.876831 470.697540,514.748779 471.397034,488.605164 
	C471.962128,467.485229 471.527405,446.339386 471.639709,425.205597 
	C471.655212,422.290680 470.764313,420.165710 468.523041,418.280853 
	C462.440857,413.165924 456.497498,407.885956 450.877991,401.486755 
	C475.193848,401.486755 499.509674,401.486755 525.381653,401.486755 
	C521.106750,405.748749 517.984741,409.628021 514.132629,412.542358 
	C506.096191,418.622314 503.928070,426.225647 504.044891,436.228027 
	C504.595398,483.367798 504.376953,530.517273 504.255249,577.662842 
	C504.244598,581.789124 505.518982,584.465454 508.797913,586.845032 
	C513.500122,590.257385 517.875916,594.119568 522.697876,597.891602 
	C523.004761,597.993591 522.987366,597.966675 522.987366,597.966675 
z"/>
<path fill="#000000" opacity="1.000000" stroke="none" 
	d="
M523.017761,598.002930 
	C522.754272,597.597656 522.568115,597.054688 522.188110,596.787415 
	C512.073669,589.673035 510.524200,579.711304 510.673553,567.992432 
	C511.250854,522.697327 511.060486,477.391113 510.907715,432.089874 
	C510.888611,426.431915 512.352966,422.207947 516.804199,418.684937 
	C520.447510,415.801422 523.649231,412.360870 527.056641,409.177887 
	C528.304382,408.012329 529.584595,406.705322 531.234253,408.600128 
	C532.631836,410.205353 531.479187,411.377106 530.406067,412.445648 
	C526.865540,415.971100 523.375366,419.555481 519.686523,422.920624 
	C517.293335,425.103760 516.291565,427.515106 516.297119,430.797485 
	C516.380371,480.098480 516.376587,529.399597 516.313477,578.700684 
	C516.309814,581.566345 517.085632,583.827576 519.024231,585.899963 
	C525.849792,593.196411 532.606262,600.557617 539.366516,607.914917 
	C540.356689,608.992493 541.725403,609.804565 542.075623,611.537109 
	C540.751587,613.579895 538.587891,612.972107 536.735474,612.974792 
	C512.752380,613.009033 488.769257,612.967163 464.786133,612.989441 
	C461.471985,612.992493 458.457581,612.639954 456.441284,608.070740 
	C481.502472,608.070740 506.040314,608.070740 531.408386,608.070740 
	C529.133057,603.428528 525.993103,601.162476 523.260742,598.157349 
	C522.987366,597.966675 523.004761,597.993591 523.017761,598.002930 
z"/>
<path fill="#000000" opacity="1.000000" stroke="none" 
	d="
M748.413696,561.671265 
	C752.086243,577.302917 761.728394,587.999023 774.016357,597.010193 
	C779.955933,601.365845 785.686890,606.156189 790.797729,611.619873 
	C788.984497,613.563538 787.038086,613.025513 785.299500,613.027466 
	C758.146423,613.057129 730.993225,613.023132 703.840088,613.035095 
	C700.561401,613.036560 697.513672,612.845398 696.403931,607.981628 
	C723.661621,607.981628 750.491760,607.981628 777.321838,607.981628 
	C777.491089,607.555786 777.660339,607.129883 777.829651,606.704041 
	C773.652771,603.070190 769.756714,599.033691 765.241455,595.885132 
	C755.430847,589.043884 749.357117,580.021973 745.441589,568.678894 
	C739.362183,551.067383 732.068665,533.875549 725.317932,516.494873 
	C722.997681,510.521088 723.191833,510.103790 729.414917,509.180847 
	C734.710876,508.395416 740.037659,508.608093 745.355408,509.205322 
	C747.778809,509.477478 750.223267,509.562592 753.743591,509.808319 
	C747.917236,498.026459 741.957581,487.315796 739.315002,474.704346 
	C742.548828,475.132294 744.465576,476.245575 745.217468,478.659393 
	C749.007690,490.827393 754.963257,501.985443 761.057434,513.087158 
	C761.354736,513.628723 761.404968,514.305969 761.707153,515.428772 
	C751.230530,515.759033 741.188293,513.096619 729.895081,513.745422 
	C736.226318,530.125000 742.253052,545.716858 748.413696,561.671265 
z"/>
<path fill="#000000" opacity="1.000000" stroke="none" 
	d="
M651.722412,655.470825 
	C648.016418,658.983459 648.650391,663.470642 652.991089,665.488831 
	C655.696594,666.746704 656.784973,664.858521 656.888794,662.679016 
	C657.140137,657.405151 657.708435,652.095947 656.403931,646.860840 
	C662.356140,644.520081 663.576965,645.448669 663.321228,651.457397 
	C663.128174,655.992493 662.717468,660.604309 663.717102,665.118286 
	C666.447632,664.812927 666.396179,662.200745 668.209961,661.368225 
	C670.466370,661.284790 671.352234,663.368469 672.815247,664.598328 
	C674.414001,665.942261 676.155273,665.928406 677.928955,665.006714 
	C678.866455,664.519592 679.644043,663.719299 679.414124,662.635132 
	C678.989868,660.634827 677.194214,660.408875 675.565979,660.025940 
	C674.108276,659.683228 672.597351,659.451416 671.222717,658.893005 
	C667.672363,657.450745 666.243958,654.587036 666.601990,650.909973 
	C666.964783,647.184692 669.776245,646.164307 672.935303,645.715820 
	C675.644043,645.331360 678.204468,646.287109 680.832397,646.632446 
	C682.838440,646.896057 683.366577,648.117981 682.650513,649.832458 
	C681.950439,651.508423 680.895630,652.843750 678.867004,651.374634 
	C677.012756,650.031860 674.417725,647.632202 673.104431,650.526062 
	C671.539368,653.974915 675.621643,653.784546 677.682312,654.688843 
	C677.831360,654.754211 678.011536,654.744446 678.169800,654.793640 
	C683.167053,656.348938 685.801697,659.565674 685.058472,663.199951 
	C684.394653,666.446045 679.125122,669.447876 674.939087,668.796814 
	C666.820984,667.534302 658.720886,666.942932 650.729614,669.424988 
	C647.551636,670.412109 646.608459,668.683411 645.828796,666.162537 
	C645.000977,663.485657 645.292725,660.030334 641.200256,658.901917 
	C640.564575,662.237366 641.189392,665.120972 643.419983,667.960449 
	C639.742859,668.786865 637.299561,666.808289 634.184143,667.265686 
	C635.026672,663.832886 637.056641,660.760376 632.702698,658.690002 
	C635.011719,656.374817 635.738708,653.892944 634.981750,651.233093 
	C634.033020,647.899292 635.728210,646.638672 638.575378,646.101257 
	C643.156250,645.236511 647.553833,645.203979 651.070496,648.982727 
	C652.809387,650.851318 653.767944,652.824646 651.722412,655.470825 
M644.319702,649.225464 
	C643.123352,648.996765 641.880920,647.973938 640.618896,649.590637 
	C640.900146,651.359558 641.199524,653.242615 641.501343,655.140625 
	C646.989319,654.011292 647.428955,653.191589 644.319702,649.225464 
z"/>
<path fill="#000000" opacity="1.000000" stroke="none" 
	d="
M746.203003,660.703857 
	C746.148438,665.893860 743.952332,668.734985 739.053040,669.001709 
	C734.066040,669.273315 730.036377,665.985107 729.164001,661.077637 
	C728.321350,656.337097 729.734985,651.415466 727.880188,646.794434 
	C734.195984,644.479187 735.495117,645.413818 735.250000,651.744873 
	C735.127625,654.904602 735.186401,658.074768 735.265076,661.237610 
	C735.312805,663.155396 735.717163,665.149841 738.163452,665.096375 
	C740.520325,665.044983 741.705261,663.512817 741.687622,661.122925 
	C741.652283,656.336914 742.456787,651.498718 740.649048,646.851562 
	C742.189636,645.115784 744.135071,645.779907 745.845947,645.766113 
	C754.815735,645.693604 763.786804,645.780212 772.756470,645.704407 
	C776.152283,645.675720 777.804077,646.338806 777.469116,650.535889 
	C777.003418,656.371155 776.081421,662.407593 779.027832,668.276367 
	C775.689575,669.060059 773.299072,667.055664 770.392029,667.052917 
	C771.904175,660.883911 770.971375,655.081299 770.655334,647.828125 
	C767.944763,651.870728 765.360413,652.299133 761.919983,649.264587 
	C761.005676,656.371216 760.502808,662.128784 762.876343,668.194641 
	C759.779053,669.636719 757.192261,668.321289 754.289124,666.858032 
	C756.114929,661.274963 756.009277,655.683777 755.094299,649.908813 
	C752.095825,650.099487 749.794373,654.225525 747.598450,649.252625 
	C745.356323,653.362915 746.602600,656.904175 746.203003,660.703857 
z"/>
<path fill="#000000" opacity="1.000000" stroke="none" 
	d="
M312.362457,645.940552 
	C319.518768,649.390259 320.104431,651.103943 315.877411,657.099487 
	C314.541168,658.994812 314.647797,660.433044 315.807556,662.044556 
	C317.201691,663.981873 318.896332,665.694031 321.493988,665.576233 
	C323.102356,665.503235 323.676636,664.132141 323.627594,662.686707 
	C323.448395,657.402649 324.482941,652.057495 322.634613,646.665222 
	C325.093445,645.278137 327.377655,645.584473 329.992798,646.531311 
	C329.148987,653.821899 328.613831,661.001221 331.415619,668.050171 
	C329.887268,669.738525 327.956329,668.487427 326.388397,668.251282 
	C323.828033,667.865906 321.493256,667.789978 319.122467,668.946228 
	C315.059113,670.927979 312.564606,669.974670 311.737183,665.181519 
	C311.280090,662.533630 310.773468,659.550537 307.127197,658.602905 
	C306.485046,662.082581 307.753021,664.923950 309.020569,667.953369 
	C305.746613,668.923523 303.285187,667.196777 300.164581,667.120850 
	C301.405853,663.795227 302.732086,660.851746 299.000275,658.580139 
	C302.226776,655.328674 302.087524,651.685059 300.740662,647.991882 
	C304.324097,645.328613 308.127991,645.514038 312.362457,645.940552 
M312.311615,650.218994 
	C310.995514,648.614014 309.553284,647.458862 307.186737,648.860901 
	C307.309113,651.017090 306.626862,653.271362 308.180359,655.480469 
	C310.916809,654.988159 313.005157,654.180054 312.311615,650.218994 
z"/>
<path fill="#000000" opacity="1.000000" stroke="none" 
	d="
M361.929138,650.722534 
	C363.159668,653.022400 364.249237,655.036926 365.777374,657.862305 
	C367.330109,653.376770 366.675842,649.952942 365.190796,646.718445 
	C367.157623,645.546448 368.681122,645.524780 369.934235,646.408081 
	C369.934235,653.390869 369.934235,660.140930 369.934235,666.882568 
	C364.861938,668.553162 364.086029,664.546692 362.312531,662.029419 
	C360.525269,659.492676 359.857147,656.209717 356.700836,653.771118 
	C357.377777,658.801025 357.243286,663.389954 360.553833,667.803955 
	C354.220856,667.563477 348.595032,668.941956 343.101532,666.743958 
	C343.725922,660.062500 344.425812,653.352661 342.642639,646.726868 
	C348.978058,644.711304 349.811218,645.346985 349.239471,651.601562 
	C348.580780,658.806763 349.107941,663.158936 350.971649,665.902832 
	C354.545746,663.608032 354.763611,661.999939 353.561401,646.437134 
	C357.650726,645.016174 360.954163,645.043335 361.929138,650.722534 
z"/>
<path fill="#000000" opacity="1.000000" stroke="none" 
	d="
M396.833008,473.101196 
	C397.042236,469.833923 396.330017,466.975403 397.474365,464.019592 
	C400.501831,464.092407 402.124054,465.568787 402.127930,468.537994 
	C402.154602,488.868164 402.136566,509.198486 402.090027,529.528625 
	C402.088318,530.277832 401.643616,531.026062 401.381470,531.849792 
	C396.697021,531.754883 396.836731,528.630188 396.837341,525.578369 
	C396.840729,508.246216 396.835693,490.914062 396.833008,473.101196 
z"/>
<path fill="#000000" opacity="1.000000" stroke="none" 
	d="
M272.028046,667.046265 
	C274.410309,663.584717 279.343842,661.190308 276.757690,655.617981 
	C276.597351,655.272461 277.196686,654.181519 277.661224,654.001343 
	C281.276886,652.599548 281.460144,649.390625 281.675507,646.086670 
	C285.749481,645.600220 289.720764,644.526917 289.704681,650.764648 
	C289.701416,652.020081 290.739624,653.109863 292.014038,653.835327 
	C292.823120,654.296021 294.093231,655.433594 293.949219,655.856201 
	C292.144196,661.153442 295.579895,664.476074 299.018250,668.299194 
	C294.993683,669.088196 292.126770,666.910339 288.882172,667.097595 
	C288.693085,665.392822 288.534576,663.963684 288.325989,662.082886 
	C285.661713,662.886963 283.124847,663.362671 281.486755,660.712769 
	C279.044952,663.426208 281.976166,665.577576 281.716522,668.133057 
	C278.661163,667.788513 275.727295,667.457703 272.398193,667.067932 
	C272.002991,667.008972 272.028046,667.046265 272.028046,667.046265 
z"/>
<path fill="#000000" opacity="1.000000" stroke="none" 
	d="
M590.021240,665.013000 
	C590.537781,666.115356 591.557800,666.781189 590.756165,668.243896 
	C588.179749,667.874817 585.483032,667.488586 582.309021,667.033936 
	C584.050964,663.078613 588.627014,660.266541 586.022949,655.389526 
	C585.878540,655.119080 586.558960,654.048279 587.053162,653.854736 
	C590.494080,652.507690 590.742004,649.517700 590.800110,646.274048 
	C594.961182,645.439026 598.705688,644.692139 598.943604,650.681091 
	C599.056213,653.517151 602.460205,653.489014 603.402527,655.595520 
	C601.535767,658.846069 601.535767,658.846069 607.298706,668.338379 
	C604.158752,668.747498 601.497498,666.649597 598.614136,667.307373 
	C597.080078,665.765259 599.017761,663.447327 596.684204,661.972412 
	C595.031189,662.449768 592.725769,663.956543 591.211792,661.077393 
	C589.812927,662.217896 589.505920,663.376770 590.021240,665.013000 
z"/>
<path fill="#000000" opacity="1.000000" stroke="none" 
	d="
M611.802979,648.796570 
	C616.482666,644.856873 621.555603,645.599243 626.329712,646.962646 
	C630.449951,648.139343 628.787964,650.619812 626.745789,652.922058 
	C623.449341,651.573120 620.734558,646.245850 616.721924,651.435669 
	C619.887146,656.858826 625.786804,653.324768 630.099304,655.609741 
	C629.051208,659.812988 628.616882,663.858765 630.832336,667.549011 
	C626.120667,667.549011 621.624512,668.041321 617.278381,667.443420 
	C609.009460,666.306030 606.132996,656.688782 611.802979,648.796570 
M623.230469,659.227112 
	C620.242798,657.845215 617.157043,656.886414 612.464050,656.358032 
	C614.606079,658.593201 614.871948,660.358887 615.626892,661.894714 
	C616.832031,664.346313 619.184998,665.654175 621.710999,665.220459 
	C624.828369,664.685181 623.315125,661.858032 623.230469,659.227112 
z"/>
<path fill="#000000" opacity="1.000000" stroke="none" 
	d="
M442.113159,422.091309 
	C433.588715,433.066589 426.767303,444.594788 422.530823,457.691315 
	C418.289368,457.039703 418.584869,454.683624 419.491486,451.880035 
	C423.969025,438.034088 431.542511,426.016846 441.089478,415.161926 
	C442.734985,413.290955 444.442963,411.468842 446.211884,409.714661 
	C447.311432,408.624268 448.587219,408.572693 449.726837,409.749451 
	C450.783173,410.840240 450.265076,411.949646 449.529083,412.884949 
	C447.165649,415.888428 444.731110,418.835938 442.113159,422.091309 
z"/>
<path fill="#000000" opacity="1.000000" stroke="none" 
	d="
M803.810181,651.417969 
	C803.639893,649.511963 803.479248,648.054138 803.298828,646.416565 
	C807.525696,645.135620 810.774292,644.978699 812.013428,650.345581 
	C812.593262,652.856934 814.204651,655.130249 815.757263,658.362366 
	C817.557678,653.736206 816.143799,650.082275 815.257751,646.475464 
	C821.270874,645.245605 821.398499,645.736450 820.828186,651.049683 
	C820.232361,656.600769 820.695129,662.265503 820.695129,668.788757 
	C811.555420,667.111389 812.164062,658.190002 806.707458,654.036316 
	C807.464172,659.097900 807.166443,663.873352 810.915405,667.935791 
	C807.829041,669.610352 805.198242,667.223755 801.328552,669.236328 
	C804.448181,662.630981 803.672913,657.213135 803.810181,651.417969 
z"/>
<path fill="#000000" opacity="1.000000" stroke="none" 
	d="
M240.244415,648.648193 
	C240.498566,651.221741 241.152328,652.930786 243.493530,654.085388 
	C245.567581,655.108276 247.164551,657.068298 242.952469,658.000977 
	C244.713150,661.427490 246.085175,664.886780 248.620010,667.934875 
	C245.765396,666.971130 242.916748,667.690857 240.191162,667.056274 
	C238.896210,665.723999 240.339722,663.652039 238.457199,662.154724 
	C236.560043,662.810974 234.247955,663.229309 232.414963,661.473328 
	C229.872620,663.810547 232.687134,665.671509 232.368820,667.866455 
	C229.756989,667.561523 227.193298,667.262146 224.666718,666.967163 
	C224.108185,664.711914 226.032150,663.958496 226.780762,662.599060 
	C227.709579,660.912415 229.331360,659.356995 227.904144,657.181335 
	C226.935028,655.703979 227.567322,654.465942 228.849701,653.859253 
	C232.089005,652.326660 232.741348,649.614502 232.409775,646.243652 
	C235.459686,646.025024 238.552399,644.278625 240.244415,648.648193 
z"/>
<path fill="#000000" opacity="1.000000" stroke="none" 
	d="
M511.441010,662.630737 
	C512.828857,664.614807 514.073242,666.279602 515.832520,668.633118 
	C512.077271,667.961487 509.121704,667.432861 506.156006,666.902466 
	C505.200226,665.433594 506.409271,663.489685 504.666809,661.887085 
	C502.841461,661.904724 500.055328,664.785400 499.027191,660.515381 
	C496.316162,662.892273 498.327789,665.171082 498.228394,667.704163 
	C495.640015,667.514282 493.230072,667.337585 490.380981,667.128601 
	C492.010834,663.116089 496.118011,660.235840 493.779816,655.603577 
	C493.622833,655.292542 494.259369,654.193970 494.736969,654.011475 
	C498.333344,652.637207 498.501862,649.361572 498.870850,646.401917 
	C501.089355,645.532715 503.023865,645.659607 505.322449,646.252319 
	C505.537811,650.245972 507.033630,653.660522 511.008148,655.008118 
	C511.227661,656.901672 509.744598,657.123230 508.837677,657.948425 
	C509.700165,659.478149 510.498871,660.894836 511.441010,662.630737 
z"/>
<path fill="#000000" opacity="1.000000" stroke="none" 
	d="
M782.457092,664.374756 
	C779.004150,658.504578 778.916382,652.935181 782.332153,649.250000 
	C785.435547,645.901917 789.312500,645.034302 793.721985,646.592896 
	C797.866028,648.057617 800.571106,650.800598 800.979187,655.189331 
	C801.408447,659.805054 800.868530,664.357300 796.382935,667.068298 
	C792.379822,669.487610 788.403992,668.735107 784.669373,666.207947 
	C783.983826,665.744141 783.368713,665.176147 782.457092,664.374756 
M786.199829,658.224854 
	C786.531006,659.500916 786.878357,660.773071 787.189087,662.054138 
	C787.557251,663.572021 788.105042,665.006042 789.938904,665.057007 
	C791.547607,665.101746 792.866089,664.232422 793.504150,662.803406 
	C794.094971,661.480103 794.638916,659.985352 794.624512,658.572021 
	C794.589478,655.128052 795.974365,650.169434 790.958130,649.711487 
	C786.239258,649.280579 786.807251,654.203003 786.199829,658.224854 
z"/>
<path fill="#000000" opacity="1.000000" stroke="none" 
	d="
M271.989624,666.990967 
	C268.976288,670.966370 266.164368,665.169373 263.050903,667.920959 
	C264.263794,659.394348 264.218231,659.324341 257.990295,658.999695 
	C256.302429,662.565002 259.343689,665.026855 260.596222,668.206848 
	C257.579071,667.788818 255.017471,667.433899 252.111008,667.031250 
	C251.938049,663.814697 254.563019,659.917603 250.015076,657.450134 
	C253.721634,654.183838 252.943085,650.476990 251.666092,646.567871 
	C254.152145,645.242004 256.418793,645.736633 258.625214,646.365173 
	C259.794098,649.603821 255.239182,655.103943 260.830750,655.164551 
	C266.554993,655.226746 262.332489,649.413696 263.614227,646.273499 
	C265.745209,645.502258 267.903625,645.508789 270.504730,646.729187 
	C267.991058,651.414856 268.406189,656.199951 268.354401,660.966125 
	C268.325684,663.607178 269.279510,665.421631 271.752533,666.876770 
	C272.028046,667.046265 272.002991,667.008972 271.989624,666.990967 
z"/>
<path fill="#000000" opacity="1.000000" stroke="none" 
	d="
M467.717529,660.607544 
	C466.683899,659.194092 465.662567,658.456299 463.940430,658.923889 
	C463.170166,662.263916 463.459290,665.305786 467.715942,667.720398 
	C463.678467,668.813538 461.261688,666.956360 458.775879,667.042725 
	C457.525757,660.521973 458.684814,654.221313 458.412567,647.939209 
	C464.377228,644.568481 471.782684,644.899658 474.252808,648.981140 
	C476.824097,653.229675 474.478333,656.096130 470.740356,658.033813 
	C471.232574,660.327515 472.517761,661.907654 473.815216,663.358032 
	C474.996429,664.678467 476.590698,665.629333 478.073181,666.798523 
	C471.175415,670.745789 471.175415,670.745789 467.717529,660.607544 
M464.254547,648.683899 
	C462.777496,650.646118 463.061218,652.698120 464.187592,654.624268 
	C464.896240,655.836182 466.135101,655.557190 467.255371,655.078003 
	C468.990936,654.335632 470.787872,653.270386 470.298767,651.201965 
	C469.672546,648.553711 467.480530,647.833557 464.254547,648.683899 
z"/>
<path fill="#000000" opacity="1.000000" stroke="none" 
	d="
M563.046631,667.127197 
	C560.083801,665.835632 557.509094,667.208374 554.928528,667.454895 
	C550.586670,667.869690 547.752991,665.971802 546.340210,662.241272 
	C544.905273,658.452209 547.064758,655.857544 550.359741,654.248596 
	C552.092163,653.402710 552.673035,652.189575 552.857239,650.368286 
	C553.106384,647.905701 554.146606,645.918396 557.019714,645.575500 
	C559.261414,645.307861 560.889038,646.158936 562.038696,648.040833 
	C563.434570,650.325684 562.563782,652.104492 560.824585,653.750610 
	C559.961121,654.567810 559.253113,655.525330 560.049744,657.202148 
	C562.038513,655.745422 563.945496,655.846252 565.593384,658.397095 
	C559.241577,664.532043 568.744324,663.538818 569.897217,666.614258 
	C567.489929,668.341125 565.366089,667.164490 563.046631,667.127197 
M550.697144,661.040344 
	C552.642090,663.079651 554.321594,665.904053 558.225952,663.597290 
	C556.336853,661.019470 556.063293,657.703125 552.913757,656.606262 
	C551.233521,657.526794 550.579590,658.788086 550.697144,661.040344 
z"/>
<path fill="#000000" opacity="1.000000" stroke="none" 
	d="
M689.912842,647.677612 
	C699.117371,644.023376 705.123596,647.632874 705.329224,656.356018 
	C705.442261,661.146790 706.639465,666.231018 700.170044,668.046570 
	C695.485291,669.361206 689.644897,667.046875 687.194885,662.887512 
	C684.476257,658.272461 685.407349,652.420715 689.912842,647.677612 
M697.246033,649.455505 
	C691.995056,650.845032 690.490784,655.594910 693.127991,662.224121 
	C693.632446,663.492126 693.993530,664.889160 695.544373,665.067139 
	C697.186707,665.255615 698.347412,664.230164 699.249451,662.955627 
	C701.651733,659.561035 701.018433,653.233215 697.246033,649.455505 
z"/>
<path fill="#000000" opacity="1.000000" stroke="none" 
	d="
M428.740662,667.708252 
	C424.300598,669.500122 420.469177,665.539490 416.295807,667.439514 
	C414.997528,664.618286 416.888367,663.221069 418.028107,661.586670 
	C420.401886,661.348206 421.162964,663.371826 422.548645,664.417419 
	C424.297699,665.737244 426.151733,666.083801 428.126587,664.962891 
	C429.056732,664.434937 429.729187,663.585999 429.539825,662.519897 
	C429.140076,660.269897 427.101868,660.001404 425.385468,659.492615 
	C423.959229,659.069885 422.371704,659.095215 421.023102,658.525574 
	C417.682892,657.114807 416.397552,654.335388 416.762787,650.849304 
	C417.125092,647.391479 419.713745,646.255188 422.675781,645.764465 
	C425.536346,645.290527 428.303009,646.061401 431.056244,646.697632 
	C432.758118,647.090942 433.854156,648.066223 432.924164,649.915405 
	C432.091980,651.570129 430.770569,652.658020 428.934784,651.199646 
	C426.687195,649.414062 424.460999,648.249756 421.525055,650.448608 
	C421.843018,652.432983 423.264587,653.373596 425.048615,653.943604 
	C426.155273,654.297180 427.327911,654.460754 428.410828,654.869019 
	C431.607910,656.074097 434.669495,657.560486 435.052429,661.496887 
	C435.470825,665.797241 431.330383,665.880310 428.740662,667.708252 
z"/>
<path fill="#000000" opacity="1.000000" stroke="none" 
	d="
M375.291809,647.029663 
	C379.357971,644.897827 383.296417,645.583191 387.046692,647.015564 
	C391.575562,648.745361 393.441528,653.579895 392.042603,659.772705 
	C391.041656,664.203552 388.562775,667.372192 383.525452,667.334473 
	C380.744843,667.313660 377.903778,667.830017 375.109131,666.828430 
	C375.826538,660.296204 376.068848,653.869019 375.291809,647.029663 
M387.605621,658.932129 
	C387.727264,656.108154 388.074585,653.234680 386.086060,650.815125 
	C385.312042,649.873352 384.321930,649.270447 383.048706,649.430603 
	C381.559753,649.617981 381.217896,650.759644 381.218933,651.980957 
	C381.222534,656.236084 380.738556,660.522156 381.648621,664.814453 
	C385.669464,665.164612 386.588867,662.448364 387.605621,658.932129 
z"/>
<path fill="#000000" opacity="1.000000" stroke="none" 
	d="
M402.122040,651.493286 
	C402.166046,654.915894 402.072021,657.917236 402.354126,660.882812 
	C402.538605,662.822021 402.951263,665.317566 405.447510,665.346985 
	C408.225983,665.379822 409.506470,663.102173 409.536804,660.589600 
	C409.592224,655.999817 410.431244,651.321411 408.393280,646.880066 
	C410.047821,645.268616 411.970673,645.429443 413.475372,646.360840 
	C415.519562,647.626282 413.464142,649.292542 413.398102,650.797058 
	C413.252625,654.111206 413.216492,657.431519 413.200836,660.749695 
	C413.173157,666.615112 412.025818,667.814880 405.927704,668.213684 
	C400.914795,668.541443 397.263123,665.800293 396.806732,661.133240 
	C396.565247,658.663696 396.596619,656.150940 396.713959,653.667542 
	C396.825104,651.314941 396.296875,649.091980 395.683990,646.891235 
	C401.446350,644.651978 402.748077,645.517883 402.122040,651.493286 
z"/>
<path fill="#000000" opacity="1.000000" stroke="none" 
	d="
M718.756409,668.681580 
	C715.165100,668.996277 712.148315,668.110352 709.054626,667.328430 
	C709.798950,660.247437 710.000732,653.403748 708.883789,646.577393 
	C715.590027,644.676086 716.440430,645.331299 715.923889,651.997620 
	C715.692688,654.980652 715.376465,657.960938 715.273865,660.948486 
	C715.225037,662.372498 714.782288,664.183167 716.405884,665.022766 
	C718.206482,665.953918 719.772156,664.697083 720.763794,663.491455 
	C722.474854,661.411316 724.018433,661.406616 725.695740,663.227295 
	C726.702698,664.320374 727.812378,665.641052 727.388550,667.202698 
	C726.872742,669.103333 725.092407,668.706421 723.607971,668.683960 
	C722.113892,668.661316 720.619019,668.687866 718.756409,668.681580 
z"/>
<path fill="#000000" opacity="1.000000" stroke="none" 
	d="
M210.958344,659.170166 
	C211.329727,661.057495 211.529739,662.724243 212.098175,664.254150 
	C212.575119,665.537781 214.341934,666.197693 214.177078,668.579346 
	C211.129532,666.957153 208.000137,667.382812 204.684296,666.932068 
	C205.813828,663.306885 208.703217,659.948242 203.766678,657.152100 
	C207.379578,653.885315 206.580841,650.221619 205.140320,646.334290 
	C210.272217,645.229553 215.051178,645.861267 219.796509,645.859497 
	C221.126068,645.858948 221.995773,646.477112 221.984436,647.974976 
	C221.977142,648.938721 222.413986,649.981567 221.457626,650.747192 
	C220.282944,651.687561 219.394012,650.879517 218.322372,650.360352 
	C213.407761,647.979004 211.667465,648.930176 211.429199,653.993347 
	C212.923447,655.190063 214.253357,654.229431 215.563492,653.605286 
	C216.756897,653.036743 217.848724,652.913696 218.584473,654.172546 
	C219.195648,655.218384 219.176208,656.415344 218.755463,657.547729 
	C218.236206,658.945251 217.157120,658.892578 215.890976,658.715332 
	C214.254227,658.486145 212.521255,657.045898 210.958344,659.170166 
z"/>
<path fill="#000000" opacity="1.000000" stroke="none" 
	d="
M435.331665,646.710938 
	C441.121307,645.111084 446.775543,645.707642 452.382477,645.897095 
	C456.068146,646.021606 456.106232,648.358337 454.747803,650.979797 
	C452.305267,651.636108 451.044281,649.071045 448.319733,649.537109 
	C447.758331,655.223511 447.539337,661.017029 449.225342,667.087891 
	C446.768555,667.087891 444.395966,667.087891 441.695587,667.087891 
	C443.190918,662.649536 442.673004,658.351440 442.673676,654.092529 
	C442.674530,648.484192 441.880402,648.041321 436.678894,650.441406 
	C435.424683,649.667175 435.119263,648.439575 435.331665,646.710938 
z"/>
<path fill="#000000" opacity="1.000000" stroke="none" 
	d="
M527.068970,665.018555 
	C528.851501,663.925476 530.310364,662.935120 531.808533,661.918091 
	C533.353699,663.027161 535.063232,664.276733 534.331116,666.293701 
	C533.566956,668.399048 531.364502,667.955627 529.564148,667.851440 
	C525.788818,667.632996 522.015320,667.383301 517.946716,667.127991 
	C518.895752,660.288696 519.331238,653.480530 517.773682,646.740540 
	C523.381958,645.011719 523.876953,645.524292 523.655823,651.182129 
	C523.507629,654.972839 523.898499,658.786255 524.086304,662.587708 
	C524.167480,664.230591 524.579834,665.620972 527.068970,665.018555 
z"/>
<path fill="#000000" opacity="1.000000" stroke="none" 
	d="
M487.980957,666.209473 
	C488.452240,667.117065 488.601929,668.097351 487.821442,668.025879 
	C485.407135,667.804993 483.022247,667.262939 480.471771,666.818726 
	C481.059448,659.992249 481.244598,653.412598 480.401276,646.769775 
	C482.363251,645.342407 484.672577,645.193848 486.410400,646.464661 
	C488.411652,647.928040 486.249237,649.673584 485.917358,651.331848 
	C484.907623,656.377502 486.824799,661.101013 487.980957,666.209473 
z"/>
<path fill="#000000" opacity="1.000000" stroke="none" 
	d="
M223.693817,613.090942 
	C225.443863,617.542236 227.751129,621.487122 227.983780,626.150452 
	C224.860672,622.075195 222.536453,617.689514 222.331467,612.417603 
	C222.330032,612.380554 222.619553,612.259949 222.709305,612.305176 
	C222.991653,612.447388 223.243469,612.650208 223.693817,613.090942 
z"/>
</svg>