<?xml version="1.0" encoding="utf-8" ?><!-- created by svgstack.com | Attribution is required. --><svg xmlns="http://www.w3.org/2000/svg" xmlns:xlink="http://www.w3.org/1999/xlink" width="1024" height="1024"><path fill="#3E3F4B" transform="scale(2 2)" d="M220.177 57.0367C233.353 56.9087 251.349 56.0485 264.267 57.1013C273.211 57.8302 272.758 67.9718 274.041 74.699L279.264 101.606C288.048 103.793 305.635 109.405 312.557 114.901C315.172 112.22 339.808 94.3095 343.25 92.857C346.018 91.6885 347.924 92.3471 350.063 94.2462C359.009 102.19 367.947 111.244 376.528 119.624C388.314 131.136 392.619 129.149 381.045 144.409C376.302 150.662 367.502 161.545 364.106 168.165C370.04 177.823 374.734 189.131 377.645 200.085C380.689 201.015 383.894 201.613 386.996 202.334L407.543 206.943C414.207 208.448 422.05 208 422.362 216.575C422.689 225.528 422.345 234.598 422.348 243.561C422.357 266.183 426.718 265.106 406.421 269.258C397.232 271.137 387.658 272.848 378.625 275.368C378.276 277.162 377.957 278.959 377.645 280.759C386.826 282.714 386.388 298.378 386.259 305.993C393.826 309.513 400.397 312.732 407.116 317.77C412.425 314.545 424.421 305.781 430.076 311.061C432.185 313.03 444.106 329.953 445.627 332.743C449.58 339.993 432.986 350.338 427.663 355.705C429.211 361.861 428.438 367.994 428.498 374.235C433.966 379.155 451.917 385.887 449.439 395.079C449.162 396.107 437.556 415.272 436.098 417.214C430.966 424.044 415.878 416.871 408.002 414.856C401.533 419.137 396.63 422.818 389.605 426.786C388.881 433.884 390.683 450.412 382.414 452.816C379.206 453.749 358.937 453.427 355.007 452.85C344.855 451.359 347.414 436.816 345.616 429.518C338.201 427.258 330.845 423.135 325 418.112C317.623 421.696 306.849 431.29 299.312 423.367C294.73 417.469 281.499 401.778 284.898 395.542C287.255 391.218 297.401 384.699 301.497 380.896L301.708 380.697C300.804 374.815 300.714 368.961 300.748 363.023C294.115 364.66 286.973 367.164 280.481 369.398C279.313 372.843 278.614 376.55 277.795 380.1L273.847 397.039C270.394 411.632 271.188 412.903 255.527 412.883L225.868 412.896C220.492 412.915 214.301 413.932 211.872 407.73C209.075 400.587 205.546 378.618 204.342 370.68C193.372 367.657 184.916 364.116 174.761 359.143L157.044 371.334C151.83 374.966 141.056 385.241 134.556 379.576C129.453 375.128 124.932 369.854 120.103 365.101L106.374 351.507C102.363 347.464 96.5348 343.13 100.16 336.998C104.526 329.612 115.899 313.469 121.184 307.4C114.98 298.093 110.797 287.517 107.325 276.936C98.5278 275.456 89.7047 272.587 81.0545 270.356C75.5829 268.944 64.6595 268.908 62.9123 262.154C62.0976 259.004 62.6061 245.596 62.6062 241.36L62.6153 225.441C62.6221 219.938 61.0601 212.498 67.1894 209.813C75.3682 206.23 98.0387 201.018 107.325 198.836C109.831 188.864 114.869 176.868 120.356 168.165L105.084 146.098C97.2153 134.61 94.4404 134.955 103.597 125.112L127.557 99.5494C131.389 95.4806 134.578 89.8675 141.105 92.9388C147.798 96.0879 166.238 110.055 172.645 114.901C182.154 108.828 193.448 104.455 204.342 101.606L209.762 75.1042C211.238 67.9346 210.852 57.9169 220.177 57.0367ZM228.084 72.5251L225.712 72.5251C224.412 76.5338 223.733 80.677 222.944 84.8077L219.545 103.155C216.938 117.01 218.007 113.457 205.413 117.251C197.167 119.735 189.006 123.023 181.679 127.589C169.906 134.927 170.764 132.03 159.736 124.418L145.751 114.927C143.467 113.39 141.248 111.721 138.894 110.295C131.52 118.493 123.669 126.316 116.115 134.355C120.911 141.031 134.594 159.585 137.619 166.256C139.134 169.596 134.176 175.181 132.612 177.815C129.404 183.216 119.761 210.687 118.704 211.455C116.289 213.209 84.0689 220.858 78.2365 222.917L78.2365 253.592C87.4292 255.638 109.482 260.055 117.695 263.405C122.058 265.184 121.988 272.162 123.279 275.939C125.377 282.079 138.402 305.51 137.781 308.36C137.09 311.528 120.145 334.85 117.097 340.218C124.626 348.43 132.539 356.456 140.704 364.04L160.276 350.542C164.904 347.386 169.329 343.548 174.761 341.87C181.23 343.013 195.796 351.949 206.456 354.528C211.996 355.868 216.416 356.108 218.225 362.117C221.239 372.131 223.656 386.57 225.712 397.004L228.938 397.004C238.639 396.995 248.423 397.319 258.113 397.004C259.435 391.607 265.496 359.025 269.064 357.033C274.173 354.182 282.968 353.038 289.024 350.792C277.676 342.577 285.965 335.923 291.636 325.899C294.448 320.929 296.356 313.892 302.539 312.43C308.083 313.546 315.441 318.297 320.728 320.889C326.105 314.425 333.995 310.174 341.803 307.4C341.721 302.545 341.403 290.422 342.495 286.215C344.467 278.612 355.702 280.75 361.593 280.759C361.668 276.614 364.144 265.689 366.585 262.443C371.026 260.069 401.158 254.257 407.116 253.592L407.116 222.917C396.811 220.016 376.666 217.328 368.093 213.544C363.654 211.585 363.414 205.663 362.14 201.631C359.744 194.048 356.773 186.613 352.963 179.624C351.235 176.453 345.585 169.849 346.929 166.075C348.169 162.591 366.735 137.701 369.94 134.355C361.392 126.552 352.431 118.713 344.475 110.295C339.333 113.719 316.226 130.806 311.527 131.767C307.792 130.763 304.034 127.812 300.599 125.979C292.996 121.922 284.594 118.525 276.174 116.578C273.137 115.876 269.777 115.521 266.868 114.4C264.698 113.563 258.635 77.609 258.113 72.5251L228.084 72.5251ZM359.754 295.616L356.926 295.616C356.943 300.367 357.541 310.532 356.474 314.715C355.046 320.312 347.999 320.618 343.65 322.768C338.919 325.108 334.762 328.217 331.002 331.907C321.021 341.703 319.439 337.132 306.827 330.197C304.823 334.042 302.153 337.768 300.748 341.87C312.271 350.055 318.123 346.543 316.049 362.932C314.988 371.321 319.956 383.625 316.998 387.862C313.24 393.246 305.987 395.568 301.708 400.478C303.972 403.545 306.388 406.551 308.495 409.725L308.759 409.587C328.907 398.904 321.873 396.844 338.917 408.995C344.969 413.31 357.184 415.416 359.598 419.927C361.202 422.924 362.054 433.694 362.74 437.76L367.938 437.76L372.939 437.76C375.137 407.511 372.964 420.499 392.14 407.272C396.159 404.5 402.186 397.233 406.792 397.734C410.952 398.187 421.533 402.233 426.013 403.792C427.769 400.971 429.159 397.951 430.948 395.141C427.487 392.975 417.971 386.878 415.441 384.232C410.673 379.246 413.425 371.87 413.276 365.708C413.157 360.829 410.046 353.067 412.835 348.638C414.209 346.454 425.778 336.921 428.498 334.983C426.544 332.158 424.737 329.196 422.38 326.687C418.4 329.014 410.987 333.575 406.735 334.723C401.003 336.272 397.457 330.354 393.301 327.45C387.953 323.714 372.974 318.509 371.376 315.228C370.034 312.472 370.765 299.396 370.747 295.616L359.754 295.616Z"/><path fill="#3287EC" transform="scale(2 2)" d="M362.74 332.84C371.208 332.282 379.913 335.304 386.437 340.677C409.57 359.73 397.146 397.741 367.938 400.478C322.171 403.33 316.994 336.952 362.74 332.84ZM361.593 347.802C337.141 353.097 343.615 388.476 368.733 385.08C393.184 377.659 385.628 345.359 361.593 347.802Z"/><path fill="#3E3F4B" transform="scale(2 2)" d="M239.15 155.545C282.161 152.845 320.696 188.622 323.424 231.135C326.385 277.271 290.413 314.38 245.266 316.978C199.608 317.292 161.988 285.063 161.247 238.048C160.565 194.805 195.088 156.103 239.15 155.545ZM176.741 242.271C183.217 296.859 246.934 321.216 286.929 284.118C330.822 243.404 302.005 172.352 242.366 170.834C203.485 172.094 174.074 203.14 176.741 242.271Z"/><path fill="#3E3F4B" transform="scale(2 2)" d="M242.366 185.902C289.009 189.191 309.939 243.665 273.415 274.516C243.736 299.586 199.782 280.763 193.652 242.271C193.573 241.117 193.637 239.938 193.652 238.782L208.92 238.782C211.843 265.163 240.739 279.643 262.108 263.737C288.616 244.006 277.096 206.235 242.366 201.754C242.375 196.484 242.132 191.164 242.366 185.902Z"/></svg> 