<?xml version="1.0" encoding="utf-8" ?><!-- created by svgstack.com | Attribution is required. --><svg xmlns="http://www.w3.org/2000/svg" xmlns:xlink="http://www.w3.org/1999/xlink" width="1024" height="1024"><path fill="#262526" transform="scale(2 2)" d="M198.481 82.0842C201.939 81.9265 205.467 82.0829 208.934 82.0815L243.585 82.0667C259.145 82.0688 257.969 84.2907 257.983 97.8737L257.962 113.805C257.934 117.332 257.755 120.85 257.969 124.375C268.599 126.641 286.472 133.328 294.973 139.967C300.702 133.089 314.408 119.595 320.905 114.142C323.387 112.058 325.461 111.331 328.241 113.586C336.462 120.254 343.34 128.723 350.821 136.177C354.332 139.676 368.481 151.664 368.776 156.149C369.033 160.06 344.972 182.743 341.183 186.921C347.945 200.611 352.22 208.239 356.132 223.751L370.5 223.751C381.351 223.757 383.885 224.494 392.903 218.172C420.709 198.681 459.314 216.081 462.833 250.642C466.29 284.586 431.843 312.147 399.806 296.621C392.947 293.297 387.579 286.975 379.531 286.621C374.29 286.391 361.07 286.22 356.132 286.783C352.034 301.352 349.527 311.161 341.183 324.81C347.471 331.368 354.165 337.524 360.562 343.973C373.453 356.968 371.573 356.064 360.06 367.602L334.736 393.031C330.276 397.606 326.961 402.519 320.489 397.281C315.927 393.59 297.978 376.042 294.973 371.627C292.677 372.608 290.541 373.801 288.373 375.028C278.685 380.459 268.717 384.411 257.969 387.182C258.278 395.718 258.939 416.56 257.763 424.584C256.762 431.404 245.619 429.476 240.817 429.48L205.777 429.487C191.048 429.477 191.907 428.301 191.919 412.885C191.926 404.337 192.197 395.722 191.944 387.182C185.062 384.416 177.921 382.654 170.927 379.689C165.311 377.309 160.155 373.78 154.48 371.627C152.973 373.481 151.131 375.063 149.443 376.748L139.296 386.797C135.838 390.209 132.476 394.201 128.727 397.254C122.261 402.518 117.875 395.567 113.516 391.278C108.102 385.953 85.1308 364.144 82.0924 358.987C77.9862 352.019 88.9291 344.701 93.1097 340.555C98.3645 335.343 103.453 329.952 108.775 324.81C101.49 313.094 96.3788 300.584 92.8743 287.273L67.6232 287.282C63.7717 287.285 53.1776 288.559 50.2474 285.537C46.9251 282.11 48.5207 251.838 48.5224 245.687C48.5286 223.405 44.8219 223.748 69.8202 223.74L92.8743 223.751C96.6243 211.015 101.002 197.843 108.775 186.921L92.3035 170.324C74.9634 152.932 78.2965 155.293 94.0034 139.665C102.109 131.599 110.039 123.265 118.422 115.49C125.221 109.184 129.965 115.628 135.039 120.54C141.571 126.863 148.366 133.243 154.48 139.967C163.946 132.731 180.259 126.597 191.944 124.375C191.515 116.397 191.964 108.346 191.951 100.352C191.939 92.78 188.598 83.1219 198.481 82.0842ZM219.624 188.501C200.531 190.948 183.409 199.064 171.337 214.63C148.881 243.584 154.352 286.174 183.516 308.427C205.251 325.012 236.83 327.43 260.197 312.749C263.294 310.804 266.227 308.594 269.36 306.709C265.918 306.731 262.467 306.618 259.026 306.709C253.57 306.84 250.615 307.774 246.332 303.676C241.084 298.653 224.55 282.763 220.819 277.182C214.019 267.008 232.152 268.226 236.282 268.226L259.026 268.25C259.035 260.014 259.138 251.767 259.026 243.532L236.471 243.549C223.526 243.554 211.947 243.668 226.46 228.512C232.273 222.44 242.838 210.486 248.872 205.713C251.2 203.872 265.551 205.285 269.36 205.004C255.394 193.129 237.961 187.145 219.624 188.501Z"/><defs><linearGradient id="gradient_0" gradientUnits="userSpaceOnUse" x1="447.21008" y1="277.01331" x2="241.66754" y2="241.65112"><stop offset="0" stop-color="#C6AD98"/><stop offset="1" stop-color="#BEB8B4"/></linearGradient></defs><path fill="url(#gradient_0)" transform="scale(2 2)" d="M253.939 217.246L275.809 217.246C297.761 238.61 290.491 235.73 321.204 235.741L373.176 235.739C377.597 235.737 382.519 236.102 386.839 235.139C396.331 233.023 399.589 226.977 407.539 224.098C435.431 213.995 460.617 244.141 447.321 270.949C439.611 286.493 420.07 293.088 404.608 285.241C385.979 274.536 392.273 274.681 369.414 274.678L348.948 274.676C333.583 274.676 318.117 274.322 302.763 274.727C290.451 275.053 284.795 285.808 276.831 294.257L253.939 294.257C249.288 289.911 244.64 284.995 240.653 280.03C250.249 279.685 267.431 283.579 270.477 270.965C271.546 266.539 271.086 251.517 270.954 246.422C270.497 228.838 254.016 231.136 240.653 231.693C244.762 226.713 249.266 221.707 253.939 217.246Z"/><path fill="#262526" transform="scale(2 2)" d="M418.117 231.693C449.374 233.238 449.072 276.919 420.882 278.774C389.42 279.583 386.689 235.167 418.117 231.693Z"/><path fill="#5894AC" transform="scale(2 2)" d="M418.117 244.581C432.089 244.14 434.55 263.616 420.109 266.319C405.214 266.513 403.422 246.525 418.117 244.581Z"/><path fill="#97B1C2" transform="scale(2 2)" d="M203.489 94.2307L245.987 94.2307L245.976 116.793C245.973 133.188 243.104 132.932 259.403 137.43C268.137 139.84 276.334 143.38 284.245 147.757C296.38 154.473 294.65 157.546 305.407 146.601L317.026 134.907C319.587 132.312 322.127 129.316 325.07 127.163L325.419 126.911C331.371 134.996 346.737 149.244 354.184 156.385C349.226 161.142 330.451 179.49 328.038 183.923C325.653 188.304 331.244 193.801 333.11 197.513C337.526 206.295 340.776 214.362 343.709 223.751L299.353 223.751C290.539 213.52 288.387 205.454 275.925 194.906C221.713 149.021 139.248 193.035 145.85 263.868C152.753 337.939 253.036 362.062 294.128 294.97C295.817 292.212 297.236 289.253 299.353 286.783L343.709 286.783C340.502 295.195 338.472 303.646 334.081 311.672C331.752 315.929 324.959 323.255 327.91 328.404C329.585 331.327 339.792 340.698 342.935 343.896C346.689 347.98 350.768 352.01 355.009 355.589C351.381 359.536 347.283 363.207 343.451 366.965L325.419 384.941C318.004 378.067 306.806 365.017 299.425 359.564C293.352 355.077 288.384 361.024 283.08 363.91C276.365 367.565 269.313 370.789 262.008 373.079C244.173 378.668 245.969 376.348 245.97 394.753L245.987 417.231L204.102 417.231L204.116 395.308C204.122 377.367 206.28 378.662 188.579 373.195C180.391 370.666 172.268 367.013 164.808 362.851C161.696 361.114 156.958 356.753 153.29 357.283C149.297 357.86 126.807 381.39 124.296 384.941C121.096 381.307 117.586 377.934 114.173 374.501L95.0466 355.589C101.999 348.859 114.779 337.141 120.588 329.786C125.045 324.144 119.849 318.675 116.859 313.59C112.022 305.365 108.191 296.74 105.636 287.543C101.772 273.634 100.6 274.696 86.3097 274.673L70.1405 274.703C67.0896 274.724 63.9429 274.936 60.9064 274.71L60.6527 274.689L60.6527 236.444L84.7548 236.467C102.246 236.521 101.087 239.284 106.121 222.19C108.411 214.413 111.501 206.259 115.567 199.191C118.066 194.847 124.239 188.543 120.963 183.147C116.949 176.537 101.184 162.714 95.0466 155.567C104.225 146.285 114.632 135.461 124.296 126.911C131.253 133.34 143.158 147.247 150.172 152.034C155.304 155.537 162.797 148.731 167.137 146.414C173.957 142.773 181.008 140.071 188.361 137.7C205.519 132.169 203.49 136.906 203.497 117.37L203.489 94.2307Z"/></svg> 